<mxfile host="app.diagrams.net" modified="2021-11-19T10:13:09.123Z" agent="5.0 (Windows NT 10.0; Win64; x64) AppleWebKit/537.36 (KHTML, like Gecko) Chrome/95.0.4638.69 Safari/537.36" etag="GDQIFFvwxAJyAxtuldvu" version="15.8.2" type="github">
  <diagram id="W9ckOoz4WOT1ZEHt1hy_" name="Page-1">
    <mxGraphModel dx="2862" dy="2682" grid="1" gridSize="10" guides="1" tooltips="1" connect="1" arrows="1" fold="1" page="1" pageScale="1" pageWidth="1200" pageHeight="1920" math="0" shadow="0">
      <root>
        <mxCell id="0" />
        <mxCell id="1" parent="0" />
        <mxCell id="fq3Up7ErpHEwBkzviiwg-22" value="고객" style="swimlane;childLayout=stackLayout;horizontal=1;startSize=30;horizontalStack=0;rounded=1;fontSize=14;fontStyle=0;strokeWidth=2;resizeParent=0;resizeLast=1;shadow=0;dashed=0;align=center;" parent="1" vertex="1">
          <mxGeometry x="670" y="-865" width="160" height="210" as="geometry" />
        </mxCell>
        <mxCell id="fq3Up7ErpHEwBkzviiwg-23" value="고객ID&#xa;성명&#xa;닉네임&#xa;성별&#xa;생년월일&#xa;나이&#xa;전화번호&#xa;주소&#xa;알레르기 유발 요인&#xa;결제 정보&#xa;위치 정보&#xa;주변 매장&#xa;" style="align=left;strokeColor=none;fillColor=none;spacingLeft=4;fontSize=12;verticalAlign=top;resizable=0;rotatable=0;part=1;" parent="fq3Up7ErpHEwBkzviiwg-22" vertex="1">
          <mxGeometry y="30" width="160" height="180" as="geometry" />
        </mxCell>
        <mxCell id="fq3Up7ErpHEwBkzviiwg-25" value="상품(음료, 푸드)" style="swimlane;childLayout=stackLayout;horizontal=1;startSize=30;horizontalStack=0;rounded=1;fontSize=14;fontStyle=0;strokeWidth=2;resizeParent=0;resizeLast=1;shadow=0;dashed=0;align=center;" parent="1" vertex="1">
          <mxGeometry x="205" y="-540" width="130" height="130" as="geometry" />
        </mxCell>
        <mxCell id="fq3Up7ErpHEwBkzviiwg-26" value="상품 ID&#xa;상품 명&#xa;상품 정보&#xa;가격&#xa;" style="align=left;strokeColor=none;fillColor=none;spacingLeft=4;fontSize=12;verticalAlign=top;resizable=0;rotatable=0;part=1;" parent="fq3Up7ErpHEwBkzviiwg-25" vertex="1">
          <mxGeometry y="30" width="130" height="100" as="geometry" />
        </mxCell>
        <mxCell id="fq3Up7ErpHEwBkzviiwg-29" value="텀블러같은 상품&lt;br&gt;영양정보 테이블&lt;br&gt;퍼스널옵션&lt;br&gt;알레르기 유발 요인&lt;br&gt;매장마다 다른 점, 퍼스널 옵션&lt;br&gt;서비스-이벤트, 알레르기 유발요인" style="ellipse;shape=cloud;whiteSpace=wrap;html=1;" parent="1" vertex="1">
          <mxGeometry x="560" y="-70" width="600" height="270" as="geometry" />
        </mxCell>
        <mxCell id="fq3Up7ErpHEwBkzviiwg-31" value="상품(기타)" style="swimlane;childLayout=stackLayout;horizontal=1;startSize=30;horizontalStack=0;rounded=1;fontSize=14;fontStyle=0;strokeWidth=2;resizeParent=0;resizeLast=1;shadow=0;dashed=0;align=center;" parent="1" vertex="1">
          <mxGeometry x="410" y="-535" width="160" height="125" as="geometry" />
        </mxCell>
        <mxCell id="fq3Up7ErpHEwBkzviiwg-32" value="상품ID&#xa;상품 명&#xa;상품 정보&#xa;원산지&#xa;가격" style="align=left;strokeColor=none;fillColor=none;spacingLeft=4;fontSize=12;verticalAlign=top;resizable=0;rotatable=0;part=1;" parent="fq3Up7ErpHEwBkzviiwg-31" vertex="1">
          <mxGeometry y="30" width="160" height="95" as="geometry" />
        </mxCell>
        <mxCell id="fq3Up7ErpHEwBkzviiwg-35" value="영양정보" style="swimlane;childLayout=stackLayout;horizontal=1;startSize=30;horizontalStack=0;rounded=1;fontSize=14;fontStyle=0;strokeWidth=2;resizeParent=0;resizeLast=1;shadow=0;dashed=0;align=center;" parent="1" vertex="1">
          <mxGeometry x="150" y="-320" width="160" height="180" as="geometry" />
        </mxCell>
        <mxCell id="fq3Up7ErpHEwBkzviiwg-36" value="칼로리&#xa;탄수화물&#xa;당류&#xa;나트륨&#xa;단백질&#xa;지방&#xa;콜레스테롤&#xa;트랜스지방&#xa;카페인&#xa;포화지방" style="align=left;strokeColor=none;fillColor=none;spacingLeft=4;fontSize=12;verticalAlign=top;resizable=0;rotatable=0;part=1;" parent="fq3Up7ErpHEwBkzviiwg-35" vertex="1">
          <mxGeometry y="30" width="160" height="150" as="geometry" />
        </mxCell>
        <mxCell id="YSA9-jx7J6ZgSfu3KvQz-9" style="edgeStyle=orthogonalEdgeStyle;rounded=0;orthogonalLoop=1;jettySize=auto;html=1;exitX=0.75;exitY=1;exitDx=0;exitDy=0;entryX=0.75;entryY=0;entryDx=0;entryDy=0;startArrow=ERone;startFill=0;endArrow=ERmany;endFill=0;" parent="1" source="uZhMAtmSy9ZaWpm4lD-0-5" target="fq3Up7ErpHEwBkzviiwg-31" edge="1">
          <mxGeometry relative="1" as="geometry" />
        </mxCell>
        <mxCell id="uZhMAtmSy9ZaWpm4lD-0-5" value="주문" style="swimlane;childLayout=stackLayout;horizontal=1;startSize=30;horizontalStack=0;rounded=1;fontSize=14;fontStyle=0;strokeWidth=2;resizeParent=0;resizeLast=1;shadow=0;dashed=0;align=center;" parent="1" vertex="1">
          <mxGeometry x="360" y="-850" width="160" height="180" as="geometry" />
        </mxCell>
        <mxCell id="uZhMAtmSy9ZaWpm4lD-0-6" value="주문 ID(PK)&#xa;상품ID(FK)&#xa;고객ID(FK)&#xa;주문 날짜&#xa;주문 가격&#xa;배달/사이렌 여부" style="align=left;strokeColor=none;fillColor=none;spacingLeft=4;fontSize=12;verticalAlign=top;resizable=0;rotatable=0;part=1;" parent="uZhMAtmSy9ZaWpm4lD-0-5" vertex="1">
          <mxGeometry y="30" width="160" height="150" as="geometry" />
        </mxCell>
        <mxCell id="dtZZyart_YpHSdSew_Np-31" style="edgeStyle=orthogonalEdgeStyle;rounded=0;orthogonalLoop=1;jettySize=auto;html=1;exitX=0.5;exitY=1;exitDx=0;exitDy=0;" parent="uZhMAtmSy9ZaWpm4lD-0-5" source="uZhMAtmSy9ZaWpm4lD-0-6" target="uZhMAtmSy9ZaWpm4lD-0-6" edge="1">
          <mxGeometry relative="1" as="geometry" />
        </mxCell>
        <mxCell id="uZhMAtmSy9ZaWpm4lD-0-9" value="이벤트" style="swimlane;childLayout=stackLayout;horizontal=1;startSize=30;horizontalStack=0;rounded=1;fontSize=14;fontStyle=0;strokeWidth=2;resizeParent=0;resizeLast=1;shadow=0;dashed=0;align=center;" parent="1" vertex="1">
          <mxGeometry x="950" y="-1270" width="160" height="270" as="geometry" />
        </mxCell>
        <mxCell id="uZhMAtmSy9ZaWpm4lD-0-10" value="청구할인&#xa;쿠폰 할인" style="align=left;strokeColor=none;fillColor=none;spacingLeft=4;fontSize=12;verticalAlign=top;resizable=0;rotatable=0;part=1;" parent="uZhMAtmSy9ZaWpm4lD-0-9" vertex="1">
          <mxGeometry y="30" width="160" height="240" as="geometry" />
        </mxCell>
        <mxCell id="dtZZyart_YpHSdSew_Np-25" value="고객 결제 정보" style="swimlane;childLayout=stackLayout;horizontal=1;startSize=30;horizontalStack=0;rounded=1;fontSize=14;fontStyle=0;strokeWidth=2;resizeParent=0;resizeLast=1;shadow=0;dashed=0;align=center;" parent="1" vertex="1">
          <mxGeometry x="670" y="-500" width="160" height="130" as="geometry" />
        </mxCell>
        <mxCell id="dtZZyart_YpHSdSew_Np-26" value="스타벅스 카드&#xa;신용 카드&#xa;쿠폰&#xa;선물 목록&#xa;통신사 제휴 할인&#xa;현금 영수증" style="align=left;strokeColor=none;fillColor=none;spacingLeft=4;fontSize=12;verticalAlign=top;resizable=0;rotatable=0;part=1;" parent="dtZZyart_YpHSdSew_Np-25" vertex="1">
          <mxGeometry y="30" width="160" height="100" as="geometry" />
        </mxCell>
        <mxCell id="YSA9-jx7J6ZgSfu3KvQz-8" style="edgeStyle=orthogonalEdgeStyle;rounded=0;orthogonalLoop=1;jettySize=auto;html=1;exitX=0.5;exitY=0;exitDx=0;exitDy=0;entryX=0.75;entryY=1;entryDx=0;entryDy=0;startArrow=ERone;startFill=0;endArrow=ERone;endFill=0;" parent="1" source="dtZZyart_YpHSdSew_Np-27" target="fq3Up7ErpHEwBkzviiwg-26" edge="1">
          <mxGeometry relative="1" as="geometry" />
        </mxCell>
        <mxCell id="dtZZyart_YpHSdSew_Np-27" value="알레르기 유발 요인" style="swimlane;childLayout=stackLayout;horizontal=1;startSize=30;horizontalStack=0;rounded=1;fontSize=14;fontStyle=0;strokeWidth=2;resizeParent=0;resizeLast=1;shadow=0;dashed=0;align=center;" parent="1" vertex="1">
          <mxGeometry x="385" y="-310" width="160" height="120" as="geometry" />
        </mxCell>
        <mxCell id="dtZZyart_YpHSdSew_Np-28" value="대두&#xa;우유&#xa;난류&#xa;밀&#xa;고객 알레르기 여부 확인" style="align=left;strokeColor=none;fillColor=none;spacingLeft=4;fontSize=12;verticalAlign=top;resizable=0;rotatable=0;part=1;" parent="dtZZyart_YpHSdSew_Np-27" vertex="1">
          <mxGeometry y="30" width="160" height="90" as="geometry" />
        </mxCell>
        <mxCell id="dtZZyart_YpHSdSew_Np-29" value="옵션" style="swimlane;childLayout=stackLayout;horizontal=1;startSize=30;horizontalStack=0;rounded=1;fontSize=14;fontStyle=0;strokeWidth=2;resizeParent=0;resizeLast=1;shadow=0;dashed=0;align=center;" parent="1" vertex="1">
          <mxGeometry x="-40" y="-540" width="160" height="140" as="geometry" />
        </mxCell>
        <mxCell id="dtZZyart_YpHSdSew_Np-30" value="사이즈&#xa;개수&#xa;컵 종류&#xa;커피 종류&#xa;시럽 여부&#xa;음료 온도&#xa;얼음 양" style="align=left;strokeColor=none;fillColor=none;spacingLeft=4;fontSize=12;verticalAlign=top;resizable=0;rotatable=0;part=1;" parent="dtZZyart_YpHSdSew_Np-29" vertex="1">
          <mxGeometry y="30" width="160" height="110" as="geometry" />
        </mxCell>
        <mxCell id="YSA9-jx7J6ZgSfu3KvQz-4" style="edgeStyle=orthogonalEdgeStyle;rounded=0;orthogonalLoop=1;jettySize=auto;html=1;exitX=0;exitY=0.5;exitDx=0;exitDy=0;entryX=0.5;entryY=0;entryDx=0;entryDy=0;endArrow=ERmany;endFill=0;startArrow=ERone;startFill=0;" parent="1" source="uZhMAtmSy9ZaWpm4lD-0-6" target="fq3Up7ErpHEwBkzviiwg-25" edge="1">
          <mxGeometry relative="1" as="geometry" />
        </mxCell>
        <mxCell id="YSA9-jx7J6ZgSfu3KvQz-11" style="edgeStyle=orthogonalEdgeStyle;rounded=0;orthogonalLoop=1;jettySize=auto;html=1;exitX=1;exitY=0.25;exitDx=0;exitDy=0;entryX=0;entryY=0.25;entryDx=0;entryDy=0;startArrow=ERone;startFill=0;endArrow=ERone;endFill=0;" parent="1" source="dtZZyart_YpHSdSew_Np-30" target="fq3Up7ErpHEwBkzviiwg-26" edge="1">
          <mxGeometry relative="1" as="geometry" />
        </mxCell>
        <mxCell id="YSA9-jx7J6ZgSfu3KvQz-12" style="edgeStyle=orthogonalEdgeStyle;rounded=0;orthogonalLoop=1;jettySize=auto;html=1;exitX=1;exitY=0.5;exitDx=0;exitDy=0;entryX=0;entryY=0.5;entryDx=0;entryDy=0;startArrow=ERmany;startFill=0;endArrow=ERone;endFill=0;" parent="1" source="uZhMAtmSy9ZaWpm4lD-0-6" target="fq3Up7ErpHEwBkzviiwg-23" edge="1">
          <mxGeometry relative="1" as="geometry" />
        </mxCell>
        <mxCell id="YSA9-jx7J6ZgSfu3KvQz-13" style="edgeStyle=orthogonalEdgeStyle;rounded=0;orthogonalLoop=1;jettySize=auto;html=1;exitX=0.5;exitY=1;exitDx=0;exitDy=0;entryX=0.5;entryY=0;entryDx=0;entryDy=0;startArrow=ERone;startFill=0;endArrow=ERone;endFill=0;" parent="1" source="fq3Up7ErpHEwBkzviiwg-23" target="dtZZyart_YpHSdSew_Np-25" edge="1">
          <mxGeometry relative="1" as="geometry" />
        </mxCell>
        <mxCell id="moNPyxHek1df-f0fX98K-6" style="edgeStyle=orthogonalEdgeStyle;rounded=0;orthogonalLoop=1;jettySize=auto;html=1;exitX=0.25;exitY=1;exitDx=0;exitDy=0;entryX=0.55;entryY=0.011;entryDx=0;entryDy=0;entryPerimeter=0;startArrow=ERone;startFill=0;endArrow=ERone;endFill=0;" edge="1" parent="1" source="fq3Up7ErpHEwBkzviiwg-26" target="fq3Up7ErpHEwBkzviiwg-35">
          <mxGeometry relative="1" as="geometry" />
        </mxCell>
      </root>
    </mxGraphModel>
  </diagram>
</mxfile>
